<svg width="79.972" height="76.524" fill="none" xmlns="http://www.w3.org/2000/svg"><path d="M79.97 13.27c-.44 1.29-.44 2.64-.61 3.96-.64 4.85-1.23 9.69-1.83 14.54-.33 2.63-.67 5.25-.99 7.89-.17 1.44-.58 1.94-1.99 2.13-4.04.56-8.09 1.08-12.13 1.62-4.92.66-9.84 1.32-14.76 1.97-5.25.71-10.51 1.4-15.76 2.1-2.57.34-5.15.71-7.72 1.06-1-1.16-1.4-2.58-1.69-4.04-1.65-8.21-3.29-16.43-4.93-24.65-.62-3.12-1.22-6.26-1.84-9.39.11 0 .21-.01.32-.01h61.81c1.02 0 1.68.4 2.12 1.27v1.55zM31.24 39.73c0-.07-.02-.28-.05-.49-.61-3.71-1.23-7.42-1.85-11.14-.51-3.02-1.01-6.04-1.54-9.06-.24-1.35-1.56-1.98-2.64-1.31-.66.43-.9 1.16-.74 2.14.67 3.97 1.33 7.94 1.99 11.91.46 2.76.93 5.53 1.4 8.29.19 1.11.95 1.74 1.91 1.64.92-.1 1.53-.84 1.52-1.98zm8.73-1.69c-.5-5.46-.98-10.86-1.49-16.24-.09-1.06-.08-2.13-.36-3.16a1.593 1.593 0 00-1.62-1.21c-.75 0-1.29.38-1.59 1.06-.17.39-.13.82-.09 1.23.27 3.11.54 6.21.82 9.32.28 3.08.56 6.16.88 9.23.11 1.12.9 1.79 1.84 1.71 1.01-.1 1.64-.89 1.61-1.94zm5.21-10.25c0 2.82-.02 5.63 0 8.43.01 1.21.71 2 1.71 2.03 1.02.03 1.75-.78 1.79-2.03v-16.7c0-1.13-.48-1.83-1.33-2.03-1.23-.3-2.16.55-2.17 2.03-.01 2.76 0 5.52 0 8.27zm13.86-8.07c.06-1.42-.5-2.19-1.49-2.29-1.01-.1-1.82.61-1.94 1.77-.57 5.03-1.13 10.06-1.69 15.1-.14 1.22.5 2.11 1.55 2.22.95.1 1.74-.59 1.89-1.76.25-1.93.45-3.87.67-5.8.34-3.15.69-6.29 1.01-9.24zm10.5-.43c-.03-.24-.06-.47-.12-.7-.1-.35-.32-.66-.61-.87-.3-.22-.65-.33-1.02-.33-.85.01-1.47.53-1.72 1.52-1.13 4.5-2.26 9-3.38 13.51-.14.45-.11.94.09 1.37.15.32.39.59.7.76.31.18.67.25 1.02.21.79-.06 1.34-.59 1.56-1.51.85-3.35 1.68-6.69 2.51-10.04l.97-3.92z" fill="#FBE303"/><path d="M0 1.09C.71.08 1.74-.02 2.88 0c2.94.04 5.88.01 8.82.01 1.42 0 1.95.43 2.25 1.85.6 2.86 1.19 5.73 1.77 8.6.62 3.13 1.22 6.27 1.84 9.4 1.64 8.22 3.28 16.43 4.93 24.65.29 1.46.69 2.88 1.69 4.04 1.78 2.53 4.29 3.6 7.3 3.61 7.26.02 14.52 0 21.78 0H70.9c1.32 0 2.11.69 2.08 1.8-.01.39-.15.77-.41 1.06-.26.3-.61.5-1 .56-.28.04-.57.05-.85.05H31.53c-5.82 0-10.63-3.49-12.07-8.87-.62-2.35-1.02-4.77-1.5-7.16-2.27-11.33-4.54-22.66-6.8-33.99-.14-.69-.09-1.6-.52-1.99-.47-.43-1.39-.12-2.11-.13-1.98-.02-3.96-.04-5.94 0-1.08.04-2-.16-2.59-1.15V1.09zm20.88 66.75c-.01-1.14.22-2.27.65-3.33a8.702 8.702 0 018.01-5.38c2.31 0 4.52.91 6.15 2.54.81.8 1.45 1.76 1.89 2.81.44 1.05.67 2.18.67 3.32 0 2.31-.91 4.52-2.53 6.15a8.743 8.743 0 01-6.14 2.56c-2.3 0-4.51-.91-6.15-2.54a8.65 8.65 0 01-2.55-6.13zm52.11.02c0 1.72-.52 3.4-1.48 4.82a8.654 8.654 0 01-3.91 3.19c-1.59.65-3.34.82-5.02.48a8.732 8.732 0 01-4.44-2.4 8.733 8.733 0 01-2.36-4.46c-.33-1.69-.15-3.44.52-5.02a8.614 8.614 0 013.22-3.89 8.664 8.664 0 0110.95 1.14 8.662 8.662 0 012.52 6.14z" fill="#454950"/></svg>