<svg width="76.654" height="79.977" fill="none" xmlns="http://www.w3.org/2000/svg"><path d="M31.54 79.97c-.39-.28-.88-.24-1.32-.35-2.8-.67-5.31-2.24-7.15-4.46a13.317 13.317 0 01-3.06-7.85c-.03-.58-.23-.66-.73-.66-4.4.02-8.8.02-13.2 0C2.96 66.64.59 64.72.09 61.7c-.35-2.07.31-3.87 1.89-5.25 3.04-2.66 5.33-5.83 6.69-9.64a22.37 22.37 0 001.32-7.64v-8.98c.02-11.36 7.67-20.77 18.8-23.09 3.09-.64 6.2-.57 9.3.06.52.11.46.31.31.68-1.32 3.08-1.9 6.41-1.72 9.75.48 8.39 4.38 14.76 11.52 19.15 2.41 1.49 5.06 2.39 7.85 2.87.5.08.62.25.64.73.35 6.16 2.77 11.35 7.33 15.51 1.2 1.1 2.24 2.26 2.5 3.93.59 3.73-2.07 6.84-5.91 6.87-4.24.03-8.48 0-12.73 0-1.21 0-1.21 0-1.31 1.22-.25 2.67-1.29 5.21-3.01 7.28-1.71 2.07-4 3.57-6.58 4.31-.67.18-1.34.34-2.01.5l-3.43.01z" fill="#FBE303"/><path d="M61.84 0c.85.19 1.7.37 2.54.6 7.44 2.03 12.64 9.11 12.25 16.65-.42 8.01-6.07 14.48-13.79 15.83-9.3 1.62-18.13-4.85-19.39-14.21C42.26 10.09 48.22 1.89 56.94.28c.28-.05.63 0 .84-.28h4.06z" fill="#454950"/></svg>