<svg width="80" height="80" viewBox="0 0 80.001 80" fill="none" xmlns="http://www.w3.org/2000/svg"><path d="M0 65V15l.31-.1c.09.23.31.26.5.34 4.5 1.69 9.01 3.38 13.52 5.07 7.43 2.79 14.86 5.58 22.29 8.35 1.17.44 2.28 1.03 3.54 1.2-.22.36-.16.76-.16 1.14v48c0 .31.15.7-.31.85-.1-.02-.2-.05-.3-.08L0 65zm20.01.17c0-1.57-.03-3.04.01-4.52.02-.61-.13-.94-.75-1.12-.7-.19-1.36-.5-2.04-.75L10 56.08c0 1.54.04 2.99-.02 4.44-.03.67.14 1.04.83 1.22.65.17 1.26.47 1.9.7l7.3 2.73z" fill="#FBE303"/><path d="M39.68 79.86c.47-.16.31-.55.31-.86.01-3.56.01-7.12 0-10.69v-37.3c0-.39-.07-.79.16-1.15 2.99-1.11 5.99-2.19 8.98-3.33 1.87-.71 3.77-1.31 5.58-2.16.49.15.28.56.28.86.01 5.21.01 10.41.01 15.62v.96c.12-.01.25-.03.37-.06 3.04-1.13 6.1-2.29 9.14-3.41.45-.16.49-.44.49-.84-.01-5.62-.01-11.25-.01-16.87.19-.09.37-.19.57-.26 4.33-1.63 8.67-3.25 13-4.88.4-.16.88-.16 1.12-.61L80 15v50c-10.57 3.96-21.14 7.92-31.7 11.88-2.73 1.03-5.44 2.08-8.15 3.12h-.47a.33.33 0 000-.14z" fill="#FCEC41"/><path d="M54.72 24.37c-1.81.85-3.72 1.45-5.59 2.16-2.98 1.13-5.98 2.21-8.97 3.33-1.26-.17-2.38-.76-3.54-1.2-7.44-2.76-14.87-5.54-22.3-8.35C9.81 18.62 5.31 16.93.8 15.24c-.19-.08-.41-.11-.5-.34.17-.07.33-.14.5-.21 10.16-3.81 20.32-7.62 30.47-11.43 2.87-1.07 5.72-2.17 8.57-3.26h.32c.23.1.46.22.7.31l38.83 14.57c-.24.44-.73.46-1.12.6-4.33 1.64-8.67 3.27-13.01 4.88-.19.08-.38.18-.56.27-4.76-2.13-9.51-4.24-14.26-6.38-.22-.12-.47-.18-.73-.18-.25-.01-.5.05-.73.17-1.88.83-3.78 1.61-5.67 2.42-1.15.49-2.3.99-3.55 1.53.23.12.31.17.4.21 3.59 1.48 7.18 2.94 10.76 4.44 1.17.49 2.39.87 3.5 1.53z" fill="#F1D900"/><path d="M20 65.17l-7.29-2.73c-.63-.24-1.25-.53-1.9-.7-.69-.18-.86-.55-.83-1.22.06-1.45.02-2.9.02-4.44l7.22 2.7c.68.25 1.35.56 2.04.75.63.18.77.51.76 1.12-.05 1.48-.02 2.95-.02 4.52zm34.72-40.8c-1.11-.65-2.33-1.03-3.5-1.53-3.58-1.5-7.17-2.95-10.76-4.43-.09-.04-.18-.1-.4-.22 1.25-.54 2.4-1.04 3.55-1.53 1.89-.8 3.79-1.58 5.67-2.42.23-.11.48-.17.73-.17.26 0 .51.07.73.18 4.75 2.15 9.5 4.26 14.26 6.38 0 5.63 0 11.25.01 16.87 0 .4-.05.68-.49.84-3.06 1.12-6.1 2.28-9.15 3.41-.12.03-.24.05-.37.06v-.97c0-5.21 0-10.42-.01-15.62 0-.29.22-.7-.27-.85z" fill="#454950"/></svg>