<svg width="79.967" height="74.987" fill="none" xmlns="http://www.w3.org/2000/svg"><path d="M0 71.83c.89-2.21 1.56-4.5 2.31-6.76 2.54-7.55 5.06-15.12 7.56-22.69.65-1.94 1.31-2.41 3.37-2.41 1.04 0 2.09.03 3.13-.01.5-.02.78.12 1.02.6 4.42 8.52 10.4 15.83 17.43 22.32 3.04 2.81 7.36 2.74 10.38-.06 6.41-5.93 11.93-12.61 16.27-20.21.4-.7.79-1.41 1.13-2.14.18-.39.41-.52.84-.51 1.22.03 2.44 0 3.67.01 1.53 0 2.35.59 2.85 2.05 1.05 3.12 2.08 6.25 3.12 9.38 2.2 6.6 4.4 13.21 6.61 19.81.07.21.05.47.27.62v1.41c-.82 1.51-2.14 1.75-3.74 1.74-8.06-.05-16.12-.02-24.19-.02h-49c-.86 0-1.67-.1-2.29-.76-.26-.31-.51-.63-.74-.97v-1.4z" fill="#FBE303"/><path d="M62.48 22.68c-.08 3.55-.76 7.05-2.02 10.37-2.89 7.78-7.59 14.41-13.11 20.51a72.245 72.245 0 01-5.43 5.5c-1.33 1.2-2.55 1.22-3.86.01-6.2-5.76-11.59-12.16-15.66-19.62-2.33-4.27-4.02-8.77-4.71-13.62C16.13 14.87 22.79 4.26 33.32 1c11.41-3.53 23.66 2.54 27.75 13.75.94 2.54 1.36 5.17 1.41 7.93zm-22.5 9.79c1.98 0 3.91-.58 5.56-1.68a9.97 9.97 0 003.69-4.48c.76-1.83.96-3.84.57-5.79a9.956 9.956 0 00-2.74-5.12 10.03 10.03 0 00-5.12-2.74c-1.94-.38-3.95-.18-5.78.58a9.997 9.997 0 00-6.17 9.25c.01 2.64 1.07 5.18 2.94 7.05 1.87 1.87 4.4 2.92 7.05 2.93z" fill="#454950"/><path d="M39.98 32.47c-1.98 0-3.92-.59-5.56-1.69a9.997 9.997 0 01-3.69-4.49 10.03 10.03 0 01-.56-5.78c.39-1.94 1.35-3.73 2.75-5.12a9.97 9.97 0 015.13-2.73c1.94-.38 3.95-.18 5.78.58 1.83.77 3.39 2.05 4.48 3.7a10.11 10.11 0 011.67 5.57c-.02 2.64-1.08 5.17-2.95 7.04a9.977 9.977 0 01-7.05 2.92z" fill="#FEFEFE"/></svg>