<svg width="24" height="24" fill="none" xmlns="http://www.w3.org/2000/svg"><defs><clipPath id="a"><rect rx="0" width="23" height="23" transform="translate(.5 .5)" fill="#fff" fill-opacity="0"/></clipPath></defs><rect rx="0" width="23" height="23" transform="translate(.5 .5)"/><g clip-path="url(#a)" stroke="#5D6066" stroke-width="2" stroke-linejoin="round"><path d="M21 8c-.01-.36-.1-.7-.27-1-.18-.31-.43-.56-.73-.73l-7-4c-.31-.18-.65-.27-1-.27-.36 0-.7.09-1 .27l-7 4c-.31.17-.56.42-.74.73-.17.3-.26.64-.26 1v8c0 .35.09.69.26.99.18.31.43.56.74.74l7 4c.3.17.64.26 1 .26.35 0 .69-.09 1-.26l7-4c.3-.18.55-.43.73-.74.17-.3.26-.64.27-.99V8z"/><path d="M3.27 6.95L12 12l8.73-5.05M12 22.08V12" stroke-linecap="round"/></g></svg>