<svg width="24" height="24" fill="none" xmlns="http://www.w3.org/2000/svg"><defs><clipPath id="a"><rect rx="0" width="23" height="23" transform="translate(.5 .5)" fill="#fff" fill-opacity="0"/></clipPath></defs><g clip-path="url(#a)" stroke="#5D6066" stroke-width="2"><path d="M21 8c-.01-.36-.1-.7-.27-1-.18-.31-.43-.56-.73-.74l-7-4c-.31-.17-.65-.26-1-.26-.36 0-.7.09-1 .26l-7 4c-.31.18-.56.43-.74.74-.17.3-.26.64-.26 1v8c0 .35.09.69.26.99.18.31.43.56.74.73l7 4c.3.18.59.28 1 .28.4 0 .69-.1 1-.28l7-4c.3-.17.55-.42.73-.73.17-.3.26-.64.27-.99V8z"/><path d="M3.27 6.95L12 12l8.73-5.05" stroke-linejoin="round" stroke-linecap="round"/></g></svg>