<svg width="24" height="24" fill="none" xmlns="http://www.w3.org/2000/svg"><defs><clipPath id="a"><rect rx="0" width="23" height="23" transform="translate(.5 .5)" fill="#fff" fill-opacity="0"/></clipPath></defs><rect rx="0" width="23" height="23" transform="translate(.5 .5)"/><g clip-path="url(#a)" stroke="#5D6066" stroke-width="2" stroke-linejoin="round"><path d="M16 3v13H1V3h15zm4 5l3 3v5h-7V8h4zM5.5 21C4.11 21 3 19.88 3 18.5 3 17.11 4.11 16 5.5 16a2.5 2.5 0 010 5zm13 0c-1.39 0-2.5-1.12-2.5-2.5 0-1.39 1.11-2.5 2.5-2.5a2.5 2.5 0 010 5z"/></g></svg>