<svg width="24" height="24" fill="none" xmlns="http://www.w3.org/2000/svg"><defs><clipPath id="a"><rect rx="0" width="23" height="23" transform="translate(.5 .5)" fill="#fff" fill-opacity="0"/></clipPath></defs><g clip-path="url(#a)" stroke="#5D6066" stroke-width="2" stroke-linejoin="round"><path d="M9 22c-.56 0-1-.45-1-1 0-.56.44-1 1-1 .55 0 1 .44 1 1 0 .55-.45 1-1 1zm11 0c-.56 0-1-.45-1-1 0-.56.44-1 1-1 .55 0 1 .44 1 1 0 .55-.45 1-1 1z"/><path d="M1 1h4l2.68 13.38c.09.47.34.88.7 1.17.37.3.83.45 1.3.45h9.71c.47 0 .93-.15 1.3-.45.36-.29.61-.7.7-1.17L23 6H6" stroke-linecap="round"/></g></svg>