<svg width="16" height="16" fill="none" xmlns="http://www.w3.org/2000/svg"><defs><clipPath id="a"><rect rx="0" width="15" height="15" transform="translate(.5 .5)" fill="#fff" fill-opacity="0"/></clipPath></defs><rect rx="0" width="15" height="15" transform="translate(.5 .5)"/><g clip-path="url(#a)" stroke="#3BAA35" stroke-width="1.5" stroke-linejoin="round" stroke-linecap="round"><path d="M14.66 7.38V8c0 1.43-.46 2.83-1.33 3.98-.86 1.15-2.07 2-3.44 2.4-1.38.41-2.86.36-4.21-.13-1.34-.5-2.5-1.42-3.28-2.63a6.72 6.72 0 01-1.06-4.07c.1-1.43.65-2.8 1.59-3.89a6.662 6.662 0 013.6-2.17 6.67 6.67 0 014.18.41"/><path d="M14.66 2.66L8 9.33l-2-2"/></g></svg>