<svg width="80" height="80" fill="none" xmlns="http://www.w3.org/2000/svg"><defs><clipPath id="a"><rect rx="0" width="79" height="79" transform="translate(.5 .5)" fill="#fff" fill-opacity="0"/></clipPath></defs><rect rx="0" width="79" height="79" transform="translate(.5 .5)"/><g clip-path="url(#a)" stroke="#3BAA35" stroke-width="3" stroke-linejoin="round" stroke-linecap="round"><path d="M73.33 36.93V40a33.31 33.31 0 01-6.64 19.93 33.314 33.314 0 01-38.25 11.31 33.316 33.316 0 01-16.41-13.12 33.37 33.37 0 01-5.3-20.34c.48-7.17 3.26-14 7.93-19.46A33.335 33.335 0 0132.65 7.46a33.32 33.32 0 0120.91 2.07"/><path d="M73.33 13.33L40 46.7l-10-10"/></g></svg>