<svg width="24" height="24" fill="none" xmlns="http://www.w3.org/2000/svg"><defs><clipPath id="a"><rect rx="0" width="23" height="23" transform="translate(.5 .5)" fill="#fff" fill-opacity="0"/></clipPath></defs><g clip-path="url(#a)" stroke="#E8E9EA" stroke-width="2" stroke-linejoin="round"><path d="M12 23s-9-6-9-13c0-2.39.94-4.68 2.63-6.37A8.998 8.998 0 0112 1c2.38 0 4.67.94 6.36 2.63A9.007 9.007 0 0121 10c0 7-9 13-9 13z"/><path d="M12 13c-1.66 0-3-1.35-3-3 0-1.66 1.34-3 3-3 1.65 0 3 1.34 3 3 0 1.65-1.35 3-3 3z"/></g></svg>