<svg width="24" height="24" fill="none" xmlns="http://www.w3.org/2000/svg"><defs><clipPath id="a"><rect rx="0" width="23" height="23" transform="translate(.5 .5)" fill="#fff" fill-opacity="0"/></clipPath></defs><rect rx="0" width="23" height="23" transform="translate(.5 .5)"/><g clip-path="url(#a)"><path d="M20.41 20.41c-.38.37-.88.59-1.41.59H5c-.54 0-1.04-.22-1.42-.59C3.21 20.03 3 19.53 3 19V5c0-.54.21-1.04.58-1.42C3.96 3.21 4.46 3 5 3h14c.53 0 1.03.21 1.41.58.37.38.59.88.59 1.42v14c0 .53-.22 1.03-.59 1.41z" stroke="#454950" stroke-width="2" stroke-linejoin="round"/></g></svg>