<svg width="52" height="52" fill="none" xmlns="http://www.w3.org/2000/svg"><rect rx="25.5" width="51" height="51" transform="translate(.5 .5)" fill="#FCEC41"/><path d="M34.23 31.17l2.12 1.22c-.21 1.75-.14 3.51-.06 5.26.15 3.16.58 6.29 1 9.42.1.71.13 1.43.4 2.11a.58.58 0 01-.12.1 25.98 25.98 0 01-7.48 2.41c-.69.11-1.39.1-2.06.3h-4.17c-.05-.03-.1-.09-.16-.09-1.31-.06-2.6-.32-3.87-.63-1.89-.46-3.73-1.09-5.45-2.03.23-1.69.48-3.38.7-5.07.49-3.91.91-7.83.56-11.78.69-.46 1.49-.71 2.15-1.21.04.07.06.15.08.23.27 3.78.55 7.56.79 11.34.03.46.17.58.62.58 3.42-.02 6.84-.01 10.26-.01 1.1 0 2.2-.01 3.3.01.34 0 .48-.09.48-.46-.01-.4.06-.81.08-1.21.22-3.09.42-6.18.66-9.27.03-.4-.06-.84.17-1.22z" fill="#FD7058"/><path d="M34.23 31.17c-.23.39-.14.82-.17 1.22-.24 3.09-.44 6.18-.66 9.26-.03.41-.09.82-.08 1.22 0 .37-.15.46-.49.46-1.1-.02-2.2-.01-3.3-.01-3.41 0-6.83-.01-10.25.01-.45 0-.59-.12-.62-.58-.25-3.78-.52-7.56-.8-11.34a.878.878 0 00-.07-.23c.66-.51 1.36-.97 1.94-1.59.47-.47.85-1.03 1.12-1.65.05.23.11.46.17.69.43 1.69 1.08 3.27 2.49 4.4 1.23.98 2.58 1.38 4.08.58.84-.45 1.55-1.09 2.07-1.89.78-1.15 1.16-2.45 1.48-3.78.67 1.42 1.86 2.35 3.09 3.23z" fill="#2F323A"/><path d="M34.74 17.06c.82.03 1.42.61 1.4 1.34-.01.74-.62 1.29-1.44 1.31-.23 0-.47-.02-.69.08l-1.2.01c-.14-.09-.3-.06-.45-.06H19.63c-.15 0-.31-.03-.45.06l-1.19-.01c-.22-.13-.46-.07-.7-.08-.75-.02-1.32-.47-1.43-1.16-.1-.63.36-1.27 1.09-1.49.09-.03.18-.07.27-.11 1.66 0 3.31 0 4.96.02.37 0 .45-.1.39-.48-.38-2.23-.69-4.48-1.07-6.72-.15-.82-.14-1.68-.48-2.46.11-.16.09-.36.11-.54.07-.8.73-1.47 1.53-1.48 2.24-.03 4.47-.03 6.7 0 .8 0 1.45.69 1.51 1.51.01.16 0 .33 0 .5-.04.35-.08.7-.13 1.05-.44 2.76-.86 5.52-1.32 8.27-.07.42.09.45.4.45 1.65-.01 3.28-.01 4.92-.01z" fill="#FE7058"/><path d="M19.18 19.8c.14-.08.3-.06.45-.06h12.73c.15 0 .31-.02.45.06.12 1.11.02 2.24-.3 3.32-.03.07.02.12.08.15-.54 1.12-1.16 2.2-1.84 3.23-.52.51-.99 1.05-1.54 1.53-1.89 1.64-4.54 1.64-6.43 0-.54-.48-1.02-1.02-1.54-1.53-.71-1.03-1.29-2.14-1.86-3.25.01-.16.01-.33-.01-.5-.2-.98-.31-1.96-.19-2.95z" fill="#FEFDFC"/><path d="M14.38 49.23a24.732 24.732 0 01-7.21-5.34c.36-1.96.76-3.91 1.49-5.78.48-1.23 1.04-2.42 1.88-3.45.12-.16.28-.29.47-.36 1.58-.55 3.12-1.21 4.63-1.91.35 3.95-.07 7.86-.56 11.78-.21 1.68-.47 3.37-.7 5.06zm30.39-5.31a25.61 25.61 0 01-7.09 5.26c-.26-.68-.3-1.41-.39-2.12-.43-3.12-.85-6.25-1-9.41-.09-1.75-.15-3.51.06-5.26 1.49.72 3.02 1.35 4.59 1.89.39.13.58.44.79.74 1.17 1.68 1.81 3.58 2.34 5.53.3 1.11.42 2.25.7 3.37z" fill="#2F323A"/><path d="M34.74 17.06h-4.91c-.32 0-.48-.02-.41-.44.46-2.76.89-5.51 1.33-8.27.05-.35.08-.7.13-1.05 2.11 1.3 3.39 3.19 3.95 5.59.33 1.4.21 2.78-.09 4.17zM21.02 7.31c.34.78.33 1.64.48 2.46.38 2.23.69 4.48 1.07 6.72.06.38-.02.48-.39.48-1.65-.02-3.3-.02-4.96-.02-.45-1.8-.32-3.7.36-5.43.68-1.73 1.88-3.2 3.44-4.21z" fill="#F0543F"/><path d="M31.14 27.94c-.31 1.33-.69 2.63-1.47 3.78-.53.79-1.24 1.44-2.08 1.88-1.5.8-2.84.41-4.07-.57-1.41-1.13-2.06-2.71-2.5-4.41-.06-.22-.11-.45-.17-.68.02-.31.12-.59.22-.87.54.53 1.02 1.11 1.58 1.63 1.79 1.66 4.29 1.8 6.25.35.76-.57 1.35-1.31 2.01-1.97.08.28.16.57.23.86z" fill="#FDFDFC"/><path d="M30.91 27.08c-.66.67-1.25 1.4-2.01 1.97-1.96 1.46-4.46 1.32-6.25-.35-.56-.52-1.04-1.1-1.58-1.62.05-.2.04-.41.17-.57.52.5.99 1.05 1.54 1.53 1.89 1.64 4.54 1.64 6.43 0 .55-.48 1.02-1.03 1.54-1.53.13.16.12.37.16.57z" fill="#E7E9ED"/><path d="M32.6 23.27c-.07-.03-.11-.08-.09-.16.32-1.07.42-2.2.3-3.31l1.2-.01c-.17 1.28-.5 2.5-1.41 3.48zM19.18 19.8c-.12 1-.01 1.98.19 2.96.02.16.02.33.01.49-.48-.38-.69-.94-.9-1.48-.25-.63-.49-1.28-.49-1.98l1.19.01z" fill="#2F323A"/></svg>