<svg width="52" height="52" fill="none" xmlns="http://www.w3.org/2000/svg"><rect rx="25.5" width="51" height="51" transform="translate(.5 .5)" fill="#FCEC41"/><path d="M5.29 41.64c.63-1.39 1.35-2.72 2.49-3.78a7.86 7.86 0 013.02-1.76c1.02-.32 1.92-.91 2.83-1.46 2.29-1.38 4.39-3.04 6.27-4.93.08-.09.14-.26.32-.18-.39.61-.79 1.21-1.17 1.83a30.196 30.196 0 00-3.63 8.6c-.1.4.04.46.38.46.9-.02 1.8 0 2.69-.01.37-.01.52.05.42.48-.22.97-.35 1.96-.57 2.93-.09.37.02.57.32.74a9.58 9.58 0 012.21 1.75c.85.89 1.63 1.85 2.34 2.86.65.93 1.37 1.8 1.88 2.82h-1.53c-.83-.23-1.69-.26-2.53-.43-5.53-1.13-10.24-3.76-14.12-7.87-.59-.63-1.23-1.26-1.62-2.05zm31.08-8.32c1.39.96 2.84 1.83 4.35 2.59.59.29 1.26.38 1.84.71 2 1.16 3.28 2.9 4.15 5-.42.86-1.11 1.52-1.75 2.2a26.13 26.13 0 01-14.85 7.86c-.66.1-1.32.21-1.98.31h-1.22c.59-.86 1.18-1.73 1.79-2.58 1.37-1.9 2.8-3.75 4.88-4.97.23-.13.22-.29.18-.51-.21-1.02-.38-2.05-.6-3.07-.08-.37.03-.46.36-.45.85.01 1.69 0 2.54 0 .74 0 .72 0 .54-.74-.29-1.16-.73-2.28-1.1-3.41.14-.38.27-.76.41-1.14.21.14.07.38.25.53.24-.78.18-1.56.21-2.33z" fill="#E8E9EA"/><path d="M35.5 36.26c.37 1.13.81 2.25 1.1 3.42.18.74.2.73-.54.73-.85 0-1.69.01-2.54 0-.33 0-.44.09-.36.45.22 1.02.39 2.05.6 3.07.04.23.05.38-.18.51-2.08 1.21-3.51 3.07-4.88 4.98-.61.85-1.2 1.71-1.79 2.57h-1.83c-.51-1.02-1.23-1.89-1.88-2.81-.7-1.01-1.48-1.97-2.33-2.86-.65-.69-1.4-1.28-2.22-1.76-.3-.17-.4-.36-.32-.74.22-.97.35-1.96.58-2.93.1-.43-.06-.48-.42-.48-.9.02-1.8 0-2.69.01-.35.01-.49-.05-.38-.46.75-3.03 1.97-5.94 3.62-8.6.38-.61.78-1.22 1.17-1.82.24-.1.28-.38.49-.5 0 .11-.02.23-.04.34-.89 3.01-.41 5.89.78 8.71 0 .06.02.1.08.1 0 .05 0 .1.01.15.93 2.61 1.86 5.21 2.79 7.82.57 1.58 1.13 3.17 1.75 4.87l4.55-12.95.28-.71c.61.07 1.2.23 1.82.28l-.74.29c.96.24 1.84.16 2.61-.48.4-.34.65-.77.91-1.2z" fill="#F6F6F6"/><path d="M21.04 28.23c-.38-.53-.75-1.06-1.13-1.6-.6-.87-1-1.85-1.5-2.77-.26-.81-.53-1.63-.77-2.45-.08-.25-.23-.48-.44-.63-1.22-1-1.77-2.31-1.57-3.88.09-.7.43-.97 1.12-.96.28 0 .3-.13.33-.32.43.24.76.61 1.13.91.76.64 1.33.7 2.16.17.63-.39 1.32-.69 2.04-.88 1.55-.43 3.14-.43 4.72-.36 1.64.07 3.21.39 4.62 1.31.7.46 1.29.37 1.95-.17.41-.33.76-.72 1.21-.99.03.19.05.33.33.33.69-.01.99.26 1.13.95.27 1.29-.5 3.15-1.61 3.91-.17.12-.31.23-.36.45-.23.9-.52 1.77-.88 2.63-.32.65-.64 1.31-.96 1.97l-1.38 2.03c-.11.09-.18.21-.21.35-.43.38-.84.77-1.28 1.13-2 1.67-4.55 1.98-6.8.43-.67-.46-1.25-1.02-1.85-1.56z" fill="#FECF5B"/><path d="M15.96 14.51c-.33-3.86 1-7 4.11-9.32 5.58-4.16 13.86-1.2 15.6 5.54.3 1.17.4 2.4.3 3.61-.01.06-.03.12-.05.19-.39-.15-.62-.5-.97-.72-2.08-1.24-4.37-1.8-6.74-1.9-2.02-.09-4.05-.15-6.07.17-1.53.23-3.02.69-4.42 1.36-.62.31-1.13.77-1.76 1.07z" fill="#FE7058"/><path d="M30.9 37.37c-.09.24-.19.47-.28.71-.58.2-1.15.4-1.72.58-1.52.47-3.12.59-4.69.36-.95-.13-1.8-.53-2.69-.83h.01l-.08-.11c-1.19-2.82-1.68-5.7-.79-8.71.03-.11.04-.23.05-.34v.01c.09-.02.09-.05.02-.1.06-.1.12-.2.18-.31.18.81.7 1.41 1.31 1.92 1.29 1.08 2.77 1.52 4.46 1.35 1.13-.12 2.2-.56 3.08-1.28.61-.48 1.01-1.12 1.47-1.71.03.05.06.09.09.14.37 1.07.56 2.19.57 3.32.01.84-.18 1.64-.2 2.47-.26.63-1.29.82-2.06.66-.4-.09-.79-.22-1.22-.34.19.7.6 1.17 1.13 1.56.42.31.92.41 1.36.65z" fill="#FECF5B"/><path d="M15.96 14.51c.62-.3 1.14-.76 1.76-1.06 1.4-.68 2.89-1.14 4.43-1.37 2.01-.31 4.04-.26 6.06-.17 2.37.1 4.66.66 6.74 1.91.35.21.59.56.98.71.04.21-.14.28-.26.39-.25.23-.55.41-.76.71-.45.26-.81.65-1.21.98-.66.55-1.25.63-1.95.18-1.41-.92-2.98-1.25-4.62-1.32-1.58-.07-3.17-.06-4.72.37-.72.18-1.41.48-2.04.87-.83.53-1.4.47-2.16-.16-.37-.32-.7-.68-1.13-.92-.33-.4-.78-.67-1.14-1.04v-.04c.01-.02.02-.03.02-.04z" fill="#F0543F"/><path d="M30.9 37.37c-.44-.24-.94-.34-1.36-.64-.53-.39-.93-.86-1.13-1.56.44.12.83.24 1.22.33.78.17 1.8-.03 2.06-.65.25-.07.32-.29.4-.49.64-1.61.55-3.22-.11-4.81-.13-.62-.43-1.16-.8-1.66l1.38-2.03c2.18 2.02 3.57 4.44 3.81 7.46-.03.77.03 1.56-.21 2.33-.19-.15-.05-.38-.25-.53-.14.39-.28.76-.41 1.14-.26.43-.51.86-.91 1.19-.77.64-1.65.73-2.61.48l.74-.28c-.62-.06-1.21-.22-1.82-.28z" fill="#2F323A"/><path d="M31.23 28.9c-.46.6-.87 1.24-1.47 1.72-.88.71-1.95 1.15-3.08 1.27-1.69.18-3.17-.26-4.46-1.34-.61-.52-1.13-1.11-1.31-1.93l.13-.39c.6.54 1.18 1.1 1.85 1.56 2.25 1.55 4.8 1.23 6.79-.43.44-.37.86-.76 1.29-1.13.09.22.17.45.26.67z" fill="#F8B54C"/><path d="M34.91 15.62c.21-.29.51-.47.76-.71.12-.1.3-.18.26-.39.01-.06.03-.12.04-.19 1.13 2.69.81 5.25-.71 7.69-.37.59-.82 1.12-1.32 1.6-.12.11-.21.28-.42.26.36-.86.65-1.73.88-2.62.05-.23.19-.34.36-.45 1.11-.77 1.88-2.63 1.61-3.92-.14-.69-.44-.96-1.13-.95-.28.01-.3-.13-.33-.32zm-18.97-1.04c.36.37.81.63 1.14 1.04-.03.19-.05.33-.33.32-.69-.01-1.03.26-1.12.96-.2 1.57.35 2.88 1.57 3.88.21.15.36.38.44.63.24.82.51 1.63.77 2.45-.46-.21-.75-.62-1.05-.99-1.92-2.38-2.5-5.03-1.58-7.98.05-.11.1-.21.16-.31z" fill="#2F323A"/><path d="M20.73 28.94c.07.05.07.09-.02.1 0-.04.01-.07.02-.1z" fill="#FEFDFD"/><path d="M21.52 38.18c.89.31 1.74.71 2.69.84 1.57.23 3.17.11 4.69-.36.57-.18 1.14-.39 1.72-.58l-4.55 12.94c-.61-1.71-1.18-3.29-1.74-4.87-.93-2.61-1.86-5.22-2.79-7.82-.01-.05-.02-.1-.02-.15z" fill="#FE7159"/><path d="M21.45 38.08l.08.1c-.07 0-.08-.04-.08-.1z" fill="#FE7159"/><path d="M31.32 29.05c.28.08.38.42.66.5.66 1.58.75 3.19.11 4.81-.07.19-.15.42-.4.48.03-.82.22-1.63.2-2.47-.01-1.13-.2-2.25-.57-3.32z" fill="#F9F9F8"/></svg>