<svg width="52" height="52" fill="none" xmlns="http://www.w3.org/2000/svg"><rect rx="25.5" width="51" height="51" transform="translate(.5 .5)" fill="#FCEC41"/><path d="M36.47 33.41l2.51 1.62c0 4.49.01 8.99.01 13.48-2.75 1.65-5.74 2.65-8.9 3.18-.69.11-1.39.07-2.06.3h-4.27c-.82-.24-1.68-.24-2.51-.41-2.9-.56-5.64-1.54-8.19-3.04V35.03l2.54-1.62c0 2.66.02 5.32 0 7.97 0 .47.14.58.59.58 4.88-.02 9.75-.01 14.62-.01 1.71 0 3.41-.01 5.12.01.43.01.55-.12.53-.54-.04-.78-.01-1.56-.01-2.34 0-1.89.01-3.78.02-5.67z" fill="#2F323A"/><path d="M36.47 33.41l-.03 5.68c0 .78-.02 1.56.01 2.33.02.42-.09.55-.53.55-1.7-.03-3.41-.02-5.12-.02-4.88 0-9.74 0-14.61.01-.46 0-.6-.1-.59-.58.02-2.65 0-5.3 0-7.96.63-.51 1.26-1.01 1.9-1.51 1.03-.82 1.94-1.78 2.91-2.68.08.09.16.18.23.27.83 1.09 1.97 1.9 3.27 2.33 1.3.43 2.7.45 4.01.06 1.56-.45 2.76-1.4 3.72-2.67.7.66 1.39 1.32 2.09 1.97.86.8 1.84 1.46 2.74 2.22z" fill="#FFB603"/><path d="M20.59 26.19c-.41-.73-.86-1.45-1.23-2.21-.34-.66-.6-1.35-.88-2.04-.09-.21-.17-.34-.43-.29-.32.06-.6-.07-.86-.24-1.05-.72-1.83-2.62-1.58-3.85.09-.44.28-.8.7-1 .33 1.22.71 2.42 1.54 3.41-.2-1.38-.28-2.75-.37-4.13.19-.01.37-.02.56-.02h15.91c.19 0 .37.01.56.02-.1 1.42-.19 2.83-.48 4.37.9-1.17 1.32-2.39 1.64-3.66.72.36.8 1.02.75 1.69-.06.99-.45 1.93-1.1 2.67-.38.45-.82.82-1.47.73-.17-.03-.25.04-.3.19-.5 1.43-1.18 2.8-2.03 4.06-.04.09-.07.19-.08.29-.21.06-.33.23-.45.39-.61.79-1.31 1.5-2.17 2.03-1.32.83-2.72 1.15-4.25.66-1.19-.39-2.15-1.09-2.99-2.01-.32-.35-.57-.79-.99-1.06z" fill="#FEFEFE"/><path d="M16.26 12.08c.21-1.18.62-2.32 1.22-3.37.16-.27.21-.52.05-.8-.07-.14-.13-.28-.18-.42-.35-.92-.25-1.32.53-2.06.57-.54 1.03-.61 1.85-.18.36.19.62.16.95-.07.87-.62 1.85-1.07 2.88-1.34.17-.03.33-.1.46-.22.13-.11.23-.26.29-.43.44-1.13 1.04-1.46 2.21-1.24.6.11.92.58 1.1 1.1.16.46.43.68.91.81 1.01.27 1.97.73 2.82 1.34.3.22.53.24.87.07 1.02-.52 1.94-.22 2.46.79.25.48.19.97-.04 1.42-.29.59-.24 1.07.1 1.65.52.9.83 1.91.99 2.96l-19.47-.01zm-3.19 36.45c-1.45-.75-2.74-1.72-3.98-2.77a25.703 25.703 0 01-3.66-3.86c-.05-.08-.11-.17-.15-.26.65-1.39 1.36-2.74 2.52-3.8.87-.8 1.83-1.44 2.99-1.72.46-.11.84-.41 1.27-.61l1-.48c0 4.5 0 9 .01 13.5z" fill="#FFB603"/><path d="M34.51 15.84c-.19-.01-.37-.02-.56-.02H18.04c-.19 0-.37.01-.56.02a5.8 5.8 0 00-1.25-.01c-.41-.09-.83-.16-1.13-.5-.16-.18-.27-.4-.32-.63-.06-.24-.05-.48.01-.71.07-.24.19-.45.36-.62.17-.17.38-.29.61-.36.13-.04.26-.08.39-.11h19.7c.34.12.72.17.99.45.18.18.31.4.37.64.07.25.07.5 0 .74-.06.25-.19.47-.37.64-.18.18-.4.3-.64.37-.15.04-.3.07-.45.1-.41-.05-.83-.05-1.24 0z" fill="#FECF5C"/><path d="M46.73 41.64c-.65 1-1.46 1.86-2.29 2.69A25.343 25.343 0 0139 48.51c-.01-4.5-.01-8.99-.02-13.49 1.16.58 2.39 1.03 3.54 1.61 2.08 1.06 3.32 2.91 4.21 5.01z" fill="#FFB603"/><path d="M31.64 29.22c-.96 1.27-2.15 2.21-3.71 2.66-1.32.39-2.72.37-4.02-.06a6.648 6.648 0 01-3.26-2.33c-.08-.09-.16-.17-.24-.26 0-.54-.01-1.08.1-1.61.46.37.91.75 1.38 1.11 2.31 1.74 5.07 1.89 7.55.43.75-.43 1.37-1.04 2.07-1.53l.13 1.59z" fill="#FEFDFD"/><path d="M35.85 12.9h-19.7c-.03-.28.07-.55.11-.81h19.47c.09.26.13.53.12.81z" fill="#FFB603"/><path d="M31.51 27.63c-.71.49-1.32 1.09-2.07 1.53-2.49 1.45-5.24 1.31-7.55-.43-.47-.36-.92-.74-1.38-1.12-.01-.48-.04-.96.08-1.42.42.27.67.71.99 1.07.84.92 1.8 1.63 2.99 2.01 1.53.49 2.93.17 4.25-.66.86-.54 1.55-1.24 2.17-2.03.12-.16.24-.33.45-.39.02.48.04.96.07 1.44z" fill="#E6E8ED"/><path d="M34.51 15.84c.41-.05.83-.05 1.25 0-.03.24-.06.48-.08.72-.33 1.26-.75 2.48-1.65 3.66.29-1.55.38-2.96.48-4.38zm-18.28 0c.42-.05.84-.04 1.25 0 .09 1.38.17 2.76.37 4.13-.83-.99-1.22-2.19-1.54-3.41-.03-.24-.05-.48-.08-.72z" fill="#2F323A"/></svg>