<svg width="52" height="52" fill="none" xmlns="http://www.w3.org/2000/svg"><rect rx="25.5" width="51" height="51" transform="translate(.5 .5)" fill="#FCEC41"/><path d="M36.49 33.4c.84.5 1.56 1.2 2.49 1.58v13.06c0 .15-.03.3.09.43-2.76 1.67-5.75 2.69-8.92 3.21-.71.11-1.41.2-2.12.3h-4.47c-.05-.09-.13-.09-.21-.1-2.07-.2-4.1-.65-6.04-1.35-1.48-.53-2.92-1.13-4.23-2V35.02l2.47-1.62c.1.2.05.4.05.6 0 2.47.02 4.94 0 7.41 0 .41.1.55.53.55 6.6-.02 13.19-.02 19.79 0 .44 0 .53-.15.53-.55-.02-2.47-.01-4.94-.01-7.41 0-.2.03-.4.05-.6z" fill="#54BFE9"/><path d="M36.49 33.4c-.02.2-.05.4-.05.6 0 2.47-.01 4.94.01 7.41 0 .4-.09.55-.53.55-6.59-.02-13.19-.02-19.78 0-.44 0-.54-.14-.54-.55.02-2.47.01-4.94.01-7.41 0-.2.04-.4-.06-.6 1.75-1.25 3.34-2.67 4.87-4.18.05.06.12.12.16.19 1.99 2.6 5.23 3.45 8.23 2.15 1.18-.51 2.08-1.36 2.85-2.35 1.14 1.14 2.3 2.26 3.59 3.24.41.31.83.63 1.24.95z" fill="#2F323A"/><path d="M35.71 16.53c.56.38.76.95.72 1.58-.09 1.26-.53 2.37-1.52 3.21-.13.12-.29.21-.46.27-.17.06-.35.08-.53.05-.23-.03-.33.08-.4.28-.48 1.37-1.13 2.68-1.94 3.89-.06.12-.11.25-.14.38-.13.04-.24.12-.32.23-.49.6-.98 1.2-1.59 1.68-1.46 1.16-3.06 1.75-4.93 1.17-1.2-.37-2.19-1.08-3.02-2.02-.32-.37-.66-.71-.99-1.06-.36-.63-.73-1.26-1.07-1.89-.4-.74-.74-1.51-1.02-2.31-.09-.27-.22-.39-.51-.34-.25.02-.51-.05-.72-.19-1.13-.7-1.96-2.73-1.63-4 .1-.38.21-.76.69-.83.31 1.21.71 2.36 1.51 3.34-.18-1.41-.3-2.81-.35-4.22.25.2.5.39.75.61.76.64 1.3.68 2.15.13.6-.38 1.25-.66 1.94-.84 1.62-.46 3.27-.44 4.93-.37 1.62.07 3.17.4 4.55 1.34.6.41 1.22.31 1.78-.13.31-.24.6-.49.9-.74-.05 1.49-.2 2.96-.45 4.43.26-.32.49-.65.68-1.01.47-.83.69-1.76.99-2.64z" fill="#FEFEFD"/><path d="M16.05 14.32c-.27-1.5-.08-2.97.41-4.38 1.46-4.14 4.98-6.7 9.36-6.87 5.04-.18 9.66 3.88 10.14 8.9.08.81.06 1.63-.04 2.43-.47-.46-1.01-.84-1.59-1.14-2.27-1.15-4.71-1.57-7.22-1.59-.77-.15-1.56-.15-2.33 0-.57.02-1.14.04-1.71.1-2.56.26-4.97.9-7.02 2.55z" fill="#FE7058"/><path d="M16.05 14.32c2.05-1.65 4.46-2.29 7.02-2.55a24.5 24.5 0 011.71-.1h2.32c2.52.02 4.96.44 7.23 1.59.58.3 1.12.68 1.59 1.14l-.08.21c-.48.35-.93.72-1.34 1.14-.31.24-.6.49-.91.73-.56.45-1.17.54-1.78.13-1.38-.93-2.93-1.27-4.55-1.34-1.65-.07-3.31-.09-4.93.37-.68.18-1.34.46-1.94.84-.85.55-1.39.51-2.15-.13-.25-.2-.5-.4-.75-.61-.41-.41-.86-.79-1.34-1.13-.05-.08-.13-.17-.1-.29z" fill="#F0543F"/><path d="M13.08 48.53c-1.91-1.02-3.59-2.35-5.14-3.84a20.85 20.85 0 01-2.66-3.05c.65-1.43 1.39-2.78 2.57-3.85.85-.78 1.8-1.41 2.95-1.68.45-.1.82-.39 1.23-.59.35-.16.7-.34 1.05-.51v13.52zm33.65-6.89c-1.21 1.71-2.69 3.17-4.31 4.5-1.05.87-2.17 1.64-3.35 2.33-.12-.13-.08-.29-.08-.44V34.97c1.06.58 2.19 1.04 3.3 1.54 1.94.88 3.18 2.51 4.1 4.39.12.24.23.49.34.74z" fill="#2F323A"/><path d="M31.66 29.2c-.78 1-1.67 1.85-2.85 2.36-3 1.3-6.24.45-8.23-2.15-.05-.07-.11-.13-.17-.19 0-.54-.03-1.07.1-1.6.23.18.48.36.71.56 2.65 2.25 5.6 2.7 8.6.73.6-.4 1.05-.96 1.7-1.27.05.52.09 1.04.14 1.56z" fill="#FCFDFD"/><path d="M31.52 27.64c-.64.31-1.1.87-1.69 1.26-3.01 1.98-5.96 1.53-8.61-.72-.23-.2-.47-.38-.71-.56.01-.48-.05-.96.08-1.43.33.35.67.69.99 1.06.83.94 1.82 1.65 3.02 2.02 1.87.58 3.47-.01 4.93-1.17.61-.48 1.1-1.08 1.59-1.68.08-.11.19-.19.32-.23.03.48.05.96.08 1.45z" fill="#E5E9ED"/><path d="M34.5 15.75c.41-.42.86-.79 1.34-1.14.06.65-.13 1.28-.13 1.92-.3.89-.52 1.81-.99 2.63-.19.36-.42.7-.68 1.01.25-1.46.41-2.94.46-4.42zm-18.35-1.14c.48.35.93.72 1.34 1.14.05 1.41.17 2.81.36 4.22-.81-.98-1.21-2.13-1.51-3.33-.11-.67-.23-1.34-.19-2.03z" fill="#2F323A"/><path d="M27.1 11.67h-2.32c.77-.15 1.56-.15 2.32 0z" fill="#E4785C"/></svg>