<svg width="180" height="44.706" fill="none" xmlns="http://www.w3.org/2000/svg"><rect x="1.788" y="7.153" rx="5.961" width="35.764" height="35.764" fill="#FCEC41"/><rect y="8.941" rx="5.961" width="35.764" height="35.764" fill="#FBE303"/><path d="M14.9 14.98c-.1.05-.21.17-.26.27-.08.16-.07.31.14 2.49.13 1.28.23 2.37.23 2.44-.02.67-1.02.79-1.23.15-.02-.09-.1-.72-.16-1.4-.06-.68-.12-1.26-.14-1.3-.03-.09-.63.23-1.38.73-1.47.99-2.65 2.35-3.44 3.95-.29.61-.63 1.59-.77 2.22l-.09.43h-.37c-.53 0-.76.08-1.08.39-.37.37-.48.76-.33 1.25.09.29.53.73.82.81.17.05 2.7.07 11.05.07 12.21 0 11.13.04 11.55-.42.48-.53.48-1.16 0-1.68-.28-.31-.57-.42-1.11-.42h-.38l-.09-.43c-.43-2.03-1.62-4.03-3.2-5.4-.81-.7-2.34-1.66-2.39-1.5-.01.04-.07.64-.14 1.33-.06.69-.15 1.33-.19 1.43-.08.19-.35.38-.57.38-.32 0-.62-.28-.62-.59 0-.07.1-1.17.22-2.44.23-2.29.23-2.33.13-2.5-.19-.35-.14-.34-3.23-.34-2.48 0-2.81.01-2.97.08zM8.96 29.2c-.66.16-1.17.72-1.28 1.38l-.03.25h-.72c-.69 0-.72.01-.84.13-.13.13-.13.14-.13 1.13 0 .99 0 1 .13 1.13.12.12.15.13.85.13h.72v.91c0 .51.02.98.05 1.06.08.2 1.95 2.05 2.17 2.15.25.1 5.52.1 5.78 0 .19-.08.21-.1.86-.96.46-.62 1.24-1.43 1.36-1.43.12 0 .89.81 1.35 1.43.66.86.67.88.86.96.26.1 5.53.1 5.78 0 .22-.1 2.09-1.95 2.17-2.15.03-.08.05-.55.05-1.06v-.91h.73c.69 0 .72-.01.85-.13.13-.13.13-.14.13-1.13 0-.99 0-1-.13-1.13-.13-.12-.16-.13-.85-.13h-.71l-.04-.25c-.04-.27-.22-.65-.42-.89-.08-.08-.29-.23-.47-.33l-.34-.18-8.86-.01c-4.87 0-8.93.01-9.02.03zm17.43 3.56v1.92l-.6.59-.59.59h-4.32l-.34-.46c-.19-.25-.62-.73-.96-1.06-1.1-1.09-1.74-1.24-2.69-.62-.45.3-1.2 1.06-1.68 1.69l-.34.45h-4.31l-.6-.59-.6-.59v-3.85h17.03v1.93z" fill="#171B24" fill-rule="evenodd"/><path d="M12.51 7.15C12.51 3.2 15.72 0 19.67 0s7.15 3.2 7.15 7.15h-2.39a4.76 4.76 0 00-4.76-4.77c-2.64 0-4.77 2.13-4.77 4.77h-2.39z" fill="#FDF074" fill-rule="evenodd"/><path d="M10.72 8.94c0-3.95 3.21-7.16 7.16-7.16h.59c3.95 0 7.16 3.21 7.16 7.16h-2.39c0-2.64-2.13-4.77-4.77-4.77h-.59c-2.64 0-4.77 2.13-4.77 4.77h-2.39z" fill="#FBE303" fill-rule="evenodd"/><path d="M52.37 32.75c-.98 0-1.82-.11-2.53-.32q-1.07-.32-1.8-.9-.58-.48-.95-1.09-.08-.13-.14-.26a4.99 4.99 0 01-.48-1.74h2.58c.05.3.15.57.27.82.15.24.35.45.6.64.26.19.58.33.97.43.4.1.89.15 1.48.15.6 0 1.1-.05 1.52-.15.43-.12.77-.26 1.03-.43.27-.19.46-.4.57-.64.13-.26.2-.53.2-.82q0-.46-.19-.82-.24-.46-.8-.76-.96-.54-3.02-.97-1.16-.25-2.06-.6-.9-.36-1.5-.87-.33-.3-.58-.66-.19-.29-.34-.61-.3-.75-.3-1.78 0-.48.12-.93.08-.33.23-.65.07-.15.15-.29.34-.57.9-1.02.68-.56 1.69-.88 1.03-.32 2.38-.32 1.3 0 2.29.3c.66.2 1.21.49 1.65.86.46.35.81.78 1.05 1.28.26.5.41 1.05.47 1.65h-2.57c-.12-.54-.41-.98-.88-1.3q-.69-.52-2.01-.52-1.55 0-2.23.54-.45.36-.59.81-.08.23-.08.47 0 .55.24.95.22.35.62.6c.57.34 1.45.63 2.64.87.87.19 1.63.4 2.29.65q1.01.36 1.67.92c.44.36.77.78.98 1.28.23.5.35 1.1.35 1.8 0 .62-.12 1.19-.37 1.72-.24.53-.61.98-1.11 1.37-.49.38-1.1.68-1.84.9-.73.21-1.59.32-2.57.32zm79.73 0c-.97 0-1.81-.11-2.53-.32-.71-.22-1.31-.52-1.8-.9-.47-.39-.83-.84-1.09-1.35a4.98 4.98 0 01-.47-1.74h2.57c.06.3.15.57.28.82.14.24.34.45.6.64.26.19.58.33.96.43.4.1.9.15 1.48.15.6 0 1.11-.05 1.52-.15.43-.12.77-.26 1.03-.43.27-.19.47-.4.58-.64.13-.26.19-.53.19-.82q0-.46-.19-.82-.24-.46-.79-.76c-.65-.36-1.65-.68-3.02-.97-.78-.17-1.46-.37-2.06-.6-.6-.24-1.1-.53-1.5-.87-.4-.36-.71-.78-.92-1.27-.2-.5-.3-1.09-.3-1.78q0-.48.11-.93.08-.33.23-.65c.24-.5.59-.94 1.05-1.31.46-.37 1.02-.66 1.69-.88.69-.21 1.48-.32 2.38-.32.87 0 1.64.1 2.29.3.66.2 1.21.49 1.65.86.46.35.81.78 1.05 1.28.26.5.42 1.05.47 1.65h-2.57c-.11-.54-.4-.98-.87-1.3q-.69-.52-2.02-.52c-1.03 0-1.77.18-2.23.54-.44.35-.66.78-.66 1.28 0 .69.28 1.2.86 1.55.57.34 1.45.63 2.63.87.87.19 1.64.4 2.29.65.67.24 1.23.55 1.67.92q.46.37.76.84.13.21.23.44c.23.5.34 1.1.34 1.8q0 .73-.23 1.38-.06.17-.13.34c-.24.53-.62.98-1.12 1.37-.48.38-1.1.68-1.84.9-.73.21-1.58.32-2.57.32zm-29.79-15.23h2.35v8.59l4.72-4.95h2.78l-4.58 4.82 5.01 6.53h-2.83l-3.75-5.03-1.35 1.37v3.66h-2.35V17.52zm-37.19 15.1c-1.3 0-2.23-.28-2.8-.83q-.84-.84-.84-2.7v-5.92h-1.6v-2.01h1.6v-2.57h2.36v2.57h2.89v2.01h-2.89v5.59c0 .68.12 1.15.36 1.42q.39.38 1.46.38c.43 0 .86-.02 1.29-.06v2.01c-.28.03-.55.05-.84.07-.29.03-.61.04-.99.04zm79.74 0c-1.3 0-2.24-.28-2.81-.83-.55-.56-.83-1.46-.83-2.7v-5.92h-1.61v-2.01h1.61v-2.57h2.35v2.57h2.9v2.01h-2.9v5.59c0 .68.13 1.15.37 1.42q.38.38 1.45.38c.43 0 .86-.02 1.29-.06v2.01c-.27.03-.55.05-.83.07-.29.03-.62.04-.99.04zM69.31 21.16h2.19v1.93c.22-.59.6-1.1 1.11-1.52q.18-.15.38-.26.68-.39 1.57-.39c.36 0 .62.02.79.05.19.02.32.05.39.08v2.14c-.24-.07-.47-.12-.67-.15-.2-.04-.44-.06-.72-.06-.48 0-.88.09-1.23.26-.32.15-.6.37-.81.64a2.7 2.7 0 00-.49.92c-.1.34-.15.7-.15 1.07v6.64h-2.36V21.16zm13.07 11.59c-.79 0-1.52-.12-2.21-.36-.67-.26-1.26-.63-1.76-1.12q-.75-.73-1.17-1.8c-.29-.73-.43-1.57-.43-2.53v-.42c0-.9.14-1.7.43-2.38q.42-1.05 1.17-1.76c.5-.49 1.09-.85 1.76-1.09.69-.25 1.42-.37 2.21-.37.78 0 1.51.12 2.18.37.69.24 1.28.6 1.78 1.09.5.47.89 1.06 1.18 1.76.28.68.43 1.48.43 2.38v.42c0 .96-.15 1.8-.43 2.53-.29.72-.68 1.32-1.18 1.8-.5.49-1.09.86-1.78 1.12-.67.24-1.4.36-2.18.36zm35.26 0c-.62 0-1.17-.09-1.65-.26-.48-.18-.88-.43-1.2-.75-.33-.33-.58-.7-.75-1.13-.17-.43-.26-.9-.26-1.42 0-1.13.34-1.96 1.01-2.5q1-.84 2.95-.84h3.54v-.62c0-.86-.2-1.44-.58-1.76-.37-.33-.96-.49-1.78-.49-.73 0-1.26.11-1.61.34-.34.23-.54.55-.6.95h-2.29q.04-.64.29-1.17.03-.08.08-.16c.22-.42.53-.77.92-1.07.4-.3.88-.53 1.43-.69.56-.17 1.19-.26 1.89-.26q1.05 0 1.88.24c.57.16 1.06.41 1.46.75.4.33.71.76.92 1.28q.34.8.34 1.91v4.52c0 .6.01 1.13.03 1.59.01.44.05.88.1 1.3h-2.14c-.04-.32-.08-.6-.11-.83-.01-.23-.02-.52-.02-.86-.27.53-.74.99-1.41 1.37-.66.37-1.47.56-2.44.56zm36.23 0c-.79 0-1.52-.12-2.21-.36-.67-.26-1.25-.63-1.75-1.12-.5-.48-.9-1.08-1.18-1.8-.29-.73-.43-1.57-.43-2.53v-.42c0-.9.14-1.7.43-2.38.28-.7.68-1.29 1.18-1.76.5-.49 1.08-.85 1.75-1.09.69-.25 1.42-.37 2.21-.37.78 0 1.51.12 2.18.37.69.24 1.28.6 1.78 1.09.5.47.89 1.06 1.18 1.76.29.68.43 1.48.43 2.38v.42c0 .96-.14 1.8-.43 2.53-.29.72-.68 1.32-1.18 1.8-.5.49-1.09.86-1.78 1.12-.67.24-1.4.36-2.18.36zm7.92-11.59h2.18v1.93c.23-.59.6-1.1 1.12-1.52.53-.43 1.18-.65 1.95-.65.35 0 .62.02.79.05.18.02.31.05.38.08v2.14c-.24-.07-.46-.12-.66-.15-.2-.04-.44-.06-.73-.06-.47 0-.88.09-1.22.26-.33.15-.6.37-.81.64-.22.26-.38.56-.5.92-.1.34-.15.7-.15 1.07v6.64h-2.35V21.16zm13.06 11.59c-.75 0-1.47-.11-2.14-.34-.67-.25-1.26-.6-1.78-1.07-.5-.49-.9-1.1-1.2-1.83-.3-.72-.45-1.58-.45-2.57v-.42c0-.95.15-1.77.43-2.47.29-.7.67-1.28 1.16-1.73.5-.48 1.07-.83 1.71-1.05q.97-.35 2.06-.35c1.73 0 3.05.47 3.96 1.4.93.92 1.4 2.25 1.4 3.98v1.2h-8.32c.02.59.11 1.09.28 1.5.19.4.42.73.71.99.3.24.63.42 1.01.53.38.12.77.17 1.17.17.82 0 1.41-.13 1.78-.38.39-.26.65-.6.79-1.01h2.36c-.23 1.13-.79 1.99-1.69 2.57-.89.59-1.97.88-3.24.88zM91.7 37.03c-.22 0-.43-.02-.64-.06v-2.06q.32.07.64.07c.24 0 .44-.05.6-.13.17-.07.32-.21.45-.41.14-.18.28-.43.41-.75.14-.31.3-.7.47-1.18l-4.82-11.35h2.57l3.47 8.78 3.13-8.78h2.4l-4.4 11.35c-.31.8-.6 1.49-.88 2.06-.27.57-.57 1.04-.89 1.39-.32.37-.68.65-1.08.82-.4.17-.87.25-1.43.25zm-9.32-6.34c.41 0 .8-.07 1.18-.21.38-.14.72-.37 1-.67.3-.3.54-.68.71-1.15.19-.47.28-1.05.28-1.72v-.42c0-.62-.09-1.15-.28-1.59-.17-.44-.41-.81-.71-1.09-.28-.29-.62-.5-1-.65-.38-.14-.77-.21-1.18-.21-.42 0-.82.07-1.2.21-.37.15-.71.36-1.01.65-.29.28-.52.65-.71 1.09-.17.44-.25.97-.25 1.59v.42c0 .67.08 1.25.25 1.72.19.47.42.85.71 1.15.3.3.64.53 1.01.67.38.14.78.21 1.2.21zm71.49 0c.41 0 .8-.07 1.18-.21.38-.14.72-.37 1-.67.3-.3.54-.68.71-1.15.19-.47.28-1.05.28-1.72v-.42c0-.62-.09-1.15-.28-1.59-.17-.44-.41-.81-.71-1.09-.28-.29-.62-.5-1-.65-.38-.14-.77-.21-1.18-.21-.42 0-.82.07-1.2.21-.37.15-.71.36-1.01.65-.28.28-.52.65-.71 1.09-.17.44-.25.97-.25 1.59v.42c0 .67.08 1.25.25 1.72.19.47.43.85.71 1.15.3.3.64.53 1.01.67.38.14.78.21 1.2.21zm20.88-7.71c-.4 0-.79.05-1.16.15-.36.1-.68.26-.96.49-.28.22-.5.5-.67.86q-.26.51-.28 1.26h5.96c-.02-.52-.1-.97-.26-1.32-.14-.36-.34-.65-.6-.86-.26-.22-.56-.37-.92-.45q-.51-.13-1.11-.13zm-56.47 7.71c.4 0 .78-.05 1.13-.15.38-.11.7-.27.97-.47.27-.21.48-.47.64-.77.17-.31.26-.67.26-1.07v-.62h-3.11q-.9 0-1.46.38c-.35.26-.53.64-.53 1.14 0 .47.16.85.49 1.13.34.29.88.43 1.61.43z" fill="#FFF" fill-rule="evenodd"/></svg>