<svg width="45.676" height="35.833" fill="none" xmlns="http://www.w3.org/2000/svg"><path d="M29 25.21H16.64V3.01H29v22.2z" fill="#8B8D92"/><path d="M17.44 14.11c0-4.5 2.1-8.52 5.39-11.1C20.43 1.11 17.4 0 14.11 0 6.32 0 0 6.32 0 14.11c0 7.79 6.32 14.11 14.11 14.11 3.29 0 6.32-1.12 8.72-3.01-3.29-2.58-5.39-6.6-5.39-11.1z" fill="#BABBBE"/><path d="M45.67 14.11c0 7.79-6.33 14.11-14.11 14.11-3.29 0-6.33-1.12-8.73-3.01 3.29-2.58 5.39-6.6 5.39-11.1s-2.1-8.52-5.39-11.1C25.23 1.11 28.27 0 31.56 0c7.78 0 14.11 6.32 14.11 14.11z" fill="#74767C"/><path d="M33.18 31.9c.16 0 .41.02.57.09l-.25.78c-.18-.07-.34-.09-.5-.09-.53 0-.8.34-.8.96v2.1h-.83v-3.75h.8v.46c.23-.35.55-.55 1.01-.55zm-3.02.82h-1.32v1.69c0 .37.14.62.55.62.2 0 .48-.07.73-.21l.23.71c-.25.18-.67.3-1.03.3-.96 0-1.3-.53-1.3-1.4v-1.71h-.76v-.75h.76v-1.14h.82v1.14h1.32v.75zm-10.43.8c.09-.55.41-.91 1-.91.53 0 .87.32.96.91h-1.96zm2.81.34c0-1.16-.73-1.96-1.79-1.96-1.09 0-1.87.8-1.87 1.96 0 1.19.8 1.97 1.92 1.97.57 0 1.07-.14 1.53-.53l-.41-.59c-.32.25-.71.39-1.1.39-.52 0-1-.25-1.12-.92h2.79c.02-.11.05-.2.05-.32zm3.58-.91c-.23-.14-.68-.32-1.16-.32-.46 0-.71.16-.71.43 0 .26.27.32.64.37l.39.05c.82.11 1.3.45 1.3 1.11 0 .71-.62 1.24-1.71 1.24-.62 0-1.19-.16-1.63-.48l.39-.64c.28.2.69.39 1.26.39.55 0 .84-.16.84-.46 0-.21-.2-.32-.66-.39l-.39-.04c-.84-.12-1.3-.51-1.3-1.1 0-.75.62-1.21 1.55-1.21.6 0 1.15.14 1.53.39l-.34.66zm10.05-.3c-.16 0-.32.03-.46.09-.13.07-.27.14-.36.26-.09.11-.18.22-.25.38-.07.14-.09.32-.09.48 0 .19.02.35.09.48.07.14.13.28.25.39.11.12.23.18.36.25.14.07.3.09.46.09.16 0 .32-.02.46-.09.13-.07.27-.13.36-.25.12-.11.19-.23.25-.39.07-.13.1-.32.1-.48 0-.18-.03-.34-.1-.48a1.14 1.14 0 00-.25-.38c-.11-.12-.23-.19-.36-.26-.14-.04-.3-.09-.46-.09zm0-.75c.3 0 .57.05.8.16.25.09.46.23.64.41.18.18.32.39.43.62.09.25.16.5.16.77 0 .28-.04.55-.16.78-.09.25-.25.46-.43.62-.18.18-.39.32-.64.41-.25.09-.53.16-.8.16-.3 0-.57-.05-.8-.16-.25-.09-.46-.23-.64-.41-.18-.19-.32-.39-.43-.62-.09-.25-.16-.5-.16-.78 0-.27.04-.54.16-.77.09-.25.25-.46.43-.62.18-.18.39-.32.64-.41.23-.11.5-.16.8-.16zm-21.19 1.96c0-.66.43-1.21 1.14-1.21.68 0 1.12.53 1.12 1.21 0 .69-.46 1.19-1.12 1.19-.71 0-1.14-.52-1.14-1.19zm3.03 0v-1.87h-.82v.46c-.25-.35-.64-.55-1.19-.55-1.05 0-1.87.82-1.87 1.96 0 1.15.82 1.97 1.87 1.97.53 0 .92-.21 1.19-.55v.46h.82v-1.88zm-4.59 1.88v-2.36c0-.89-.57-1.48-1.48-1.48-.48 0-.98.14-1.32.66-.26-.41-.67-.66-1.24-.66-.39 0-.8.11-1.09.55v-.46h-.83v3.75h.83v-2.08c0-.64.36-1.01.91-1.01s.82.35.82.99v2.07h.82v-2.07c0-.64.39-1.01.92-1.01.55 0 .82.34.82.98v2.08h.84v.05z" fill="#A2A4A7"/></svg>