<svg width="45.676" height="35.851" fill="none" xmlns="http://www.w3.org/2000/svg"><path d="M8.23 35.77v-2.36c0-.9-.54-1.49-1.49-1.49-.47 0-.98.16-1.33.67-.27-.43-.67-.67-1.26-.67-.39 0-.78.12-1.09.55V32h-.83v3.77h.83v-2.08c0-.67.35-.98.9-.98.54 0 .82.35.82.98v2.08h.82v-2.08c0-.67.4-.98.9-.98.55 0 .83.35.83.98v2.08h.9zM20.44 32h-1.33v-1.14h-.83V32h-.74v.75h.74v1.72c0 .87.35 1.38 1.3 1.38.35 0 .74-.12 1.02-.28l-.24-.71c-.24.16-.51.2-.71.2-.39 0-.55-.24-.55-.63v-1.68h1.34V32zm6.98-.08c-.47 0-.78.24-.98.55V32h-.82v3.76h.82v-2.12c0-.62.28-.98.79-.98.15 0 .35.04.51.08l.24-.79c-.17-.03-.4-.03-.56-.03zm-10.55.39c-.39-.27-.94-.39-1.53-.39-.94 0-1.57.47-1.57 1.22 0 .62.47.98 1.29 1.09l.4.04c.43.08.66.2.66.4 0 .27-.31.47-.86.47s-.98-.2-1.26-.4l-.39.63c.43.32 1.02.47 1.61.47 1.1 0 1.73-.51 1.73-1.21 0-.67-.51-1.02-1.3-1.14l-.39-.04c-.35-.04-.63-.12-.63-.36 0-.27.28-.43.71-.43.47 0 .94.2 1.18.32l.35-.67zm21.89-.39c-.47 0-.78.24-.98.55V32h-.82v3.76h.82v-2.12c0-.62.27-.98.78-.98.16 0 .36.04.52.08l.23-.78c-.16-.04-.39-.04-.55-.04zm-10.51 1.97c0 1.13.78 1.96 2 1.96.55 0 .94-.12 1.33-.43l-.39-.67c-.31.24-.62.35-.98.35-.67 0-1.14-.47-1.14-1.21 0-.71.47-1.18 1.14-1.22.35 0 .67.12.98.35l.39-.67c-.39-.31-.78-.43-1.33-.43-1.22 0-2 .83-2 1.97zm7.61 0V32h-.82v.47c-.28-.35-.67-.55-1.18-.55-1.06 0-1.89.83-1.89 1.97 0 1.13.83 1.96 1.89 1.96.55 0 .94-.2 1.18-.55v.47h.82v-1.88zm-3.02 0c0-.67.43-1.22 1.14-1.22.66 0 1.13.51 1.13 1.22 0 .66-.47 1.21-1.13 1.21-.71-.04-1.14-.55-1.14-1.21zm-9.85-1.97c-1.1 0-1.88.79-1.88 1.96 0 1.18.78 1.96 1.92 1.96.55 0 1.1-.15 1.53-.51l-.39-.59c-.32.24-.71.39-1.1.39-.51 0-1.02-.23-1.14-.9h2.79v-.31c.04-1.21-.67-2-1.73-2zm0 .71c.51 0 .86.31.94.9h-1.96c.08-.51.43-.9 1.02-.9zm20.44 1.26v-3.38h-.82v1.96c-.27-.35-.67-.55-1.18-.55-1.06 0-1.88.83-1.88 1.97 0 1.13.82 1.96 1.88 1.96.55 0 .94-.2 1.18-.55v.47h.82v-1.88zm-3.02 0c0-.67.43-1.22 1.14-1.22.67 0 1.14.51 1.14 1.22 0 .66-.47 1.21-1.14 1.21-.71-.04-1.14-.55-1.14-1.21zm-27.54 0V32h-.83v.47c-.27-.35-.66-.55-1.18-.55-1.06 0-1.88.83-1.88 1.97 0 1.13.82 1.96 1.88 1.96.55 0 .95-.2 1.18-.55v.47h.83v-1.88zm-3.06 0c0-.67.43-1.22 1.14-1.22.66 0 1.13.51 1.13 1.22 0 .66-.47 1.21-1.13 1.21-.71-.04-1.14-.55-1.14-1.21z" fill="#A2A4A7"/><path d="M16.63 3.02h12.36v22.2H16.63V3.02z" fill="#8B8D92" fill-rule="evenodd"/><path d="M17.46 14.12c0-4.51 2.12-8.52 5.37-11.1A13.98 13.98 0 0014.12 0C6.31 0 0 6.31 0 14.12s6.31 14.13 14.12 14.13c3.3 0 6.32-1.14 8.71-3.03-3.26-2.55-5.37-6.59-5.37-11.1z" fill="#BABBBE"/><path d="M45.67 14.12c0 7.81-6.32 14.13-14.12 14.13-3.3 0-6.32-1.14-8.72-3.03 3.3-2.59 5.38-6.59 5.38-11.1s-2.12-8.52-5.38-11.1C25.22 1.13 28.25 0 31.54 0c7.81 0 14.13 6.35 14.13 14.12z" fill="#74767C"/></svg>