<svg width="62.709" height="17.105" fill="none" xmlns="http://www.w3.org/2000/svg"><path d="M5.79 0c.56-.01 2.23-.16 2.93 2.22.48 1.61 1.24 4.23 2.27 7.88h.43c1.11-3.84 1.88-6.47 2.29-7.88.72-2.4 2.5-2.22 3.21-2.22h5.5v17.1h-5.61V7.02h-.37L13.31 17.1H9.1L5.97 7.01H5.6V17.1H0V0h5.79zm24.67 0v10.08h.45l3.8-8.29C35.45.14 37.02 0 37.02 0h5.42v17.1h-5.72V7.01h-.44l-3.73 8.3c-.74 1.64-2.38 1.79-2.38 1.79h-5.43V0h5.72zm31.76 8.13c-.8 2.26-3.31 3.88-6.08 3.88h-6v5.09H44.7V8.13h17.52z" fill="#8B8D92" fill-rule="evenodd"/><path d="M56.4 0H44.41c.29 3.81 3.57 7.07 6.96 7.07h11.22C63.24 3.9 61.01 0 56.4 0z" fill="#5D6066" fill-rule="evenodd"/></svg>