<svg width="64" height="22" fill="none" xmlns="http://www.w3.org/2000/svg"><defs><clipPath id="a"><rect rx="0" width="63.936" height="21.936" transform="translate(.032 .032)" fill="#fff" fill-opacity="0"/></clipPath></defs><rect rx="0" width="63.936" height="21.936" transform="translate(.032 .032)"/><g clip-path="url(#a)"><path d="M41.68.44c-4.54 0-8.6 2.33-8.6 6.63 0 4.92 7.2 5.26 7.2 7.74 0 1.04-1.21 1.98-3.28 1.98-2.93 0-5.12-1.31-5.12-1.31l-.94 4.34s2.52 1.1 5.88 1.1c4.97 0 8.87-2.44 8.87-6.81 0-5.21-7.23-5.54-7.23-7.84 0-.81 1-1.71 3.06-1.71 2.32 0 4.22.95 4.22.95l.91-4.19S44.59.44 41.68.44zM.1.76l-.1.63s1.91.35 3.63 1.03C5.85 3.21 6 3.68 6.38 5.1l4.07 15.5h5.45L24.3.76h-5.44l-5.4 13.49-2.2-11.44C11.06 1.5 10.03.76 8.78.76H.1zm26.39 0L22.22 20.6h5.19L31.66.76h-5.17zm28.94 0c-1.25 0-1.91.66-2.4 1.82l-7.6 18.02h5.44l1.05-3.01h6.63l.64 3.01H64L59.81.76h-4.38zm.71 5.36l1.61 7.44h-4.32l2.71-7.44z" fill="#8B8D92"/></g></svg>